<?xml version="1.0"?>
<svg version="1.1" xmlns="http://www.w3.org/2000/svg" width="400px" height="200px" style="border: dashed 2px #aaa"><path fill="#" d="M56.44,104.06l6.44,0l0,2.24l-6.44,0l0,6.58l2.8,0.56l0,1.68l-8.12,0l0-1.68l2.38-0.56l0-15.12l-2.38-0.56l0-1.54l5.32-0.14l8.54,0l0,4.62l-1.82,0l-0.7-2.38l-6.02,0l0,6.3z M71.3808,112.88l0-15.12l-2.38-0.56l0-1.54l5.32-0.14l3.08,0c3.948,0,6.3,1.904,6.3,5.04c0,2.716-1.232,4.564-3.64,5.46c0.448,0.392,0.952,1.12,1.68,2.52l2.212,4.452l1.988,0.448l0,1.68l-4.2,0l-2.38-5.18c-1.316-2.8-1.932-3.36-3.78-3.36l-1.26,0l0,6.3l2.38,0.56l0,1.68l-7.7,0l0-1.68z M74.3208,104.48l2.1,0c2.744,0,4.34-1.288,4.34-3.5c0-1.876-1.456-3.22-3.5-3.22l-2.94,0l0,6.72z"/><path fill="#" d=""/></svg>
